<?xml version="1.0" standalone="no"?>
<!DOCTYPE svg PUBLIC "-//W3C//DTD SVG 20010904//EN"
 "http://www.w3.org/TR/2001/REC-SVG-20010904/DTD/svg10.dtd">
<svg version="1.0" xmlns="http://www.w3.org/2000/svg"
 height="630px" viewBox="0 0 300 39.08"
 preserveAspectRatio="xMidYMid meet">

<g transform="translate(0.000000,144.000000) scale(0.100000,-0.100000)"
fill="white" stroke="none">
<path d="M251 1259 c-71 -14 -142 -60 -176 -114 -27 -43 -30 -57 -29 -124 0
-51 6 -86 17 -107 27 -52 98 -106 223 -169 137 -69 197 -120 213 -183 33 -123
-46 -211 -190 -212 -82 0 -145 18 -219 64 -32 20 -61 36 -64 36 -3 0 -6 -29
-6 -65 l0 -66 61 -29 c75 -35 183 -54 263 -46 186 19 274 97 284 251 6 104 -9
148 -78 217 -47 46 -84 70 -186 120 -70 34 -142 77 -160 95 -68 68 -49 183 36
217 79 32 229 12 305 -40 31 -22 35 -17 35 46 0 59 0 60 -39 79 -69 35 -196
49 -290 30z"/>
<path d="M988 1063 c17 -7 17 -234 0 -251 -9 -9 -4 -12 25 -12 34 0 36 1 27
24 -5 13 -6 26 -3 29 3 3 2 53 -2 111 l-7 106 -27 -1 c-14 0 -20 -3 -13 -6z"/>
<path d="M1123 1054 c-3 -8 -1 -20 5 -26 16 -16 42 -2 42 22 0 24 -38 28 -47
4z"/>
<path d="M778 975 c-30 -17 -40 -40 -40 -92 0 -74 85 -110 146 -62 21 16 26
29 26 64 0 57 -7 73 -41 90 -35 19 -56 18 -91 0z m90 -57 c19 -40 -2 -82 -43
-86 -47 -6 -71 49 -44 99 16 31 70 22 87 -13z"/>
<path d="M1297 983 c-41 -4 -47 -6 -37 -18 8 -10 11 -41 8 -90 -3 -74 -3 -75
22 -75 25 0 25 1 22 70 -4 67 -3 69 22 76 46 11 56 0 56 -64 0 -32 -5 -63 -12
-70 -9 -9 -4 -12 24 -12 l36 0 -5 48 c-2 26 -6 61 -9 79 -5 34 -37 64 -64 61
-8 -1 -37 -3 -63 -5z"/>
<path d="M1118 968 c7 -7 12 -40 12 -78 0 -38 -5 -71 -12 -78 -9 -9 -3 -12 27
-12 30 0 36 3 27 12 -7 7 -12 43 -12 90 l0 78 -27 0 c-21 0 -24 -3 -15 -12z"/>
<path d="M1207 574 c-4 -4 -2 -13 4 -20 14 -17 4 -44 -16 -44 -22 0 -18 -27 5
-33 17 -4 20 -14 20 -64 0 -33 5 -64 12 -71 23 -23 99 -8 84 17 -4 6 -20 8
-36 4 l-30 -5 0 61 c0 58 1 61 25 61 16 0 25 6 25 15 0 9 -9 15 -24 15 -21 0
-25 6 -28 32 -3 31 -25 48 -41 32z"/>
<path d="M1003 505 c-46 -33 -21 -83 50 -100 17 -5 27 -14 27 -26 0 -15 -7
-19 -34 -19 -19 0 -38 5 -41 10 -10 16 -35 12 -35 -5 0 -36 106 -47 135 -15
29 32 10 71 -44 90 -23 8 -44 20 -44 25 -3 14 43 19 56 6 15 -15 37 -14 37 3
0 35 -72 56 -107 31z"/>
<path d="M1415 505 c-39 -21 -45 -32 -45 -87 0 -38 5 -50 26 -67 31 -25 91
-28 120 -7 14 11 16 18 8 26 -8 8 -14 9 -18 1 -10 -15 -69 -14 -84 1 -22 22
-13 27 51 30 l62 3 -2 34 c-3 61 -63 95 -118 66z m75 -29 c0 -2 3 -11 6 -20 5
-13 -2 -16 -40 -16 -47 0 -55 7 -34 28 11 11 68 18 68 8z"/>
<path d="M1647 513 c-41 -4 -47 -6 -37 -18 8 -10 11 -41 8 -90 -3 -74 -3 -75
22 -75 25 0 25 1 22 70 -4 68 -3 69 24 76 19 5 30 2 39 -9 12 -17 12 -79 0
-116 -6 -19 -2 -21 31 -21 30 0 35 3 26 12 -7 7 -12 36 -12 65 0 48 3 55 26
65 22 11 28 10 40 -7 16 -22 18 -88 4 -116 -10 -17 -7 -19 27 -19 29 0 34 3
25 12 -7 7 -12 40 -12 80 0 61 -2 69 -26 84 -21 14 -31 15 -61 6 -23 -7 -42
-8 -54 -2 -10 6 -24 9 -31 8 -7 -1 -35 -3 -61 -5z"/>
<path d="M738 478 c11 -18 30 -57 42 -85 19 -46 21 -57 10 -83 -7 -16 -21 -32
-31 -35 -21 -7 -26 -35 -6 -35 31 0 62 40 115 151 56 117 57 120 33 117 -20
-2 -29 -14 -47 -58 -12 -30 -26 -56 -30 -57 -5 -2 -21 24 -36 57 -20 47 -31
60 -48 60 l-22 0 20 -32z"/>
</g>
</svg>
